<?xml version="1.0" encoding="utf-8"?>
<!-- Generator: Adobe Illustrator 24.0.0, SVG Export Plug-In . SVG Version: 6.00 Build 0)  -->
<svg version="1.1" id="Capa_1" xmlns="http://www.w3.org/2000/svg" xmlns:xlink="http://www.w3.org/1999/xlink" x="0px" y="0px"
	 viewBox="0 0 138 138" style="enable-background:new 0 0 138 138;" xml:space="preserve">
<g id="Fondos">
</g>
<g id="Elementos">
	<g>
		<g>
			<g>
				<g>
					<path d="M59,129.9c-1.4,0-2.9-0.4-4.1-1.2l-6.4-4.1c-1.3-0.8-3.1-0.8-4.4,0.2l-4.4,3.5c-2.6,2.1-6.3,2.3-9,0.4l-6.9-4.6
						c-2.2-1.4-3.4-3.8-3.4-6.3v-102c0-4.1,3.4-7.6,7.6-7.6h82c4.1,0,7.6,3.4,7.6,7.6v102.2c0,2.4-1.1,4.6-3.1,6.1l-5.9,4.4
						c-2.7,2.1-6.5,2.1-9.2,0L95,125c-1.3-1-3.3-1-4.6,0.1l-3.5,2.9c-2.7,2.3-6.6,2.3-9.5,0.2l-4.5-3.4c-1.3-0.9-3.2-0.9-4.5,0
						l-4.9,3.7C62.1,129.4,60.6,129.9,59,129.9z M46.4,120c1.4,0,2.9,0.4,4.1,1.2l6.4,4.1c1.3,0.8,3.1,0.8,4.3-0.1l4.9-3.7
						c2.7-2.1,6.5-2.1,9.2,0l4.5,3.4c1.3,1,3.3,0.9,4.6-0.1l3.5-2.9c2.7-2.3,6.7-2.3,9.5-0.2l4.4,3.4c1.3,0.9,3.2,0.9,4.5,0l5.9-4.4
						c0.9-0.7,1.5-1.9,1.5-3v-102c0-2.1-1.6-3.8-3.8-3.8H28c-2.1,0-3.8,1.6-3.8,3.8v102c0,1.2,0.6,2.4,1.6,3.1l6.9,4.6
						c1.3,0.9,3.2,0.8,4.4-0.2l4.4-3.5C43,120.6,44.7,120,46.4,120z"/>
				</g>
			</g>
			<path d="M100.6,31.8H36.5c-0.8,0-1.4-0.7-1.4-1.4v-2c0-0.8,0.7-1.4,1.4-1.4h64.1c0.8,0,1.4,0.7,1.4,1.4v2
				C102.1,31.1,101.4,31.8,100.6,31.8z"/>
			<path d="M101.2,49.2H37.1c-0.8,0-1.4-0.7-1.4-1.4v-2c0-0.8,0.7-1.4,1.4-1.4h64.1c0.8,0,1.4,0.7,1.4,1.4v1.9
				C102.7,48.5,102,49.2,101.2,49.2z"/>
			<path d="M66.7,67.5H36.5c-0.8,0-1.4-0.7-1.4-1.4v-1.9c0-0.8,0.7-1.4,1.4-1.4h30.1c0.8,0,1.4,0.7,1.4,1.4v1.9
				C68.1,66.7,67.4,67.5,66.7,67.5z"/>
			<path d="M66.1,85.6H35.8c-0.8,0-1.4-0.7-1.4-1.4v-1.9c0-0.8,0.7-1.4,1.4-1.4h30.1c0.8,0,1.4,0.7,1.4,1.4v1.9
				C67.5,84.9,66.8,85.6,66.1,85.6z"/>
			<path d="M66.1,104H35.8c-0.8,0-1.4-0.7-1.4-1.4v-1.9c0-0.8,0.7-1.4,1.4-1.4h30.1c0.8,0,1.4,0.7,1.4,1.4v1.9
				C67.5,103.2,66.8,104,66.1,104z"/>
		</g>
		<g>
			<g>
				<path d="M100.2,91c0,3.8-2.8,8.2-9,9.4v4.4c0,0.5-0.4,0.9-0.9,0.9h-3.6c-0.5,0-0.9-0.5-0.9-0.9v-4.1c-3.1-0.2-6.3-1-8.2-2.3
					c-0.4-0.3-0.6-0.8-0.4-1.1l1.3-3.4c0.1-0.3,0.3-0.5,0.6-0.6c0.3-0.1,0.6-0.1,0.8,0.1c2.3,1.2,5.1,2.1,7.7,2.1
					c3.4,0,5.8-1.6,5.8-3.9c0-2.2-1.6-3.7-5.8-5.2c-5.3-1.9-10-4.2-10-9.7c0-4.4,3.4-7.9,8.6-9v-4.3c0-0.5,0.4-0.9,0.9-0.9h3.6
					c0.5,0,0.9,0.5,0.9,0.9v3.9c2.6,0.2,4.8,0.8,6.9,1.9c0.5,0.2,0.7,0.8,0.5,1.2l-1.5,3.5c-0.1,0.2-0.3,0.4-0.6,0.5
					c-0.3,0.1-0.5,0.1-0.8,0c-0.9-0.5-3.2-1.6-6.8-1.6c-3.8,0-5.1,1.9-5.1,3.4c0,2,1.5,3.1,6.5,4.8C97.4,83.2,100.2,86.2,100.2,91z"
					/>
			</g>
		</g>
	</g>
</g>
</svg>
