<svg width="140" height="101" viewBox="0 0 140 101" fill="none" xmlns="http://www.w3.org/2000/svg">
<path d="M52 79.5V72.2C60.5 70.7 64.3 64.9 64.3 59.8C64.3 53.6 60.5 49.6 51.7 46.4C44.8 43.9 42.7 42.2 42.7 39.4C42.7 37.1 44.6 34.4 50 34.4C54.9 34.4 58.1 36 59.4 36.6L60.2 37L62.8 30.8L62.1 30.4C59.3 28.9 56.1 28.1 52.5 27.9V21.2H45.9V28.3C38.7 29.6 34.2 34.2 34.2 40.1C34.2 47.2 40.7 50.4 47.6 52.8C53.4 54.9 55.8 57 55.8 60.1C55.8 63.5 52.4 65.9 47.4 65.9C43.6 65.9 39.7 64.9 36.7 63.1L35.8 62.6L33.3 68.8L33.9 69.2C36.6 70.9 41.1 72.1 45.4 72.3V79.2H52V79.5Z" fill="black"/>
<path d="M94 67.8C92.4 67 90.4 67.7 89.6 69.3C82.3 84.3 66.9 94 50.3 94C26.2 94 6.59999 74.4 6.59999 50.3C6.59999 26.2 26.2 6.6 50.3 6.6C67.9 6.6 83.7 17.1 90.6 33.3C91.3 35 93.2 35.7 94.9 35C96.6 34.3 97.3 32.4 96.6 30.7C88.7 12.1 70.5 0 50.3 0C22.6 0 0.0999908 22.5 0.0999908 50.2C0.0999908 77.9 22.6 100.4 50.3 100.4C69.4 100.4 87.2 89.3 95.5 72C96.3 70.6 95.7 68.6 94 67.8Z" fill="black"/>
<path d="M138.3 48.7L118.6 33.4C117.2 32.3 115.1 32.5 114 34C112.9 35.4 113.1 37.5 114.6 38.6L126.7 48H99.1C97.3 48 95.8 49.5 95.8 51.3C95.8 53.1 97.3 54.6 99.1 54.6H126.7L114.6 64C113.2 65.1 112.9 67.2 114 68.6C114.7 69.4 115.6 69.9 116.6 69.9C117.3 69.9 118 69.7 118.6 69.2L138.3 53.9C139.1 53.3 139.5 52.3 139.5 51.3C139.6 50.3 139.1 49.4 138.3 48.7Z" fill="black"/>
</svg>
