<?xml version="1.0" encoding="utf-8"?>
<!-- Generator: Adobe Illustrator 24.0.0, SVG Export Plug-In . SVG Version: 6.00 Build 0)  -->
<svg version="1.1" xmlns="http://www.w3.org/2000/svg" xmlns:xlink="http://www.w3.org/1999/xlink" x="0px" y="0px"
	 viewBox="0 0 138 138" style="enable-background:new 0 0 138 138;" xml:space="preserve">
<style type="text/css">
	.st0{opacity:0.11;}
	.st1{fill:url(#SVGID_1_);}
	.st2{clip-path:url(#SVGID_3_);fill:url(#SVGID_4_);}
	.st3{clip-path:url(#SVGID_3_);fill:url(#SVGID_5_);}
	.st4{clip-path:url(#SVGID_3_);fill:url(#SVGID_6_);}
	.st5{clip-path:url(#SVGID_3_);fill:url(#SVGID_7_);}
	.st6{opacity:0.57;clip-path:url(#SVGID_3_);}
	.st7{opacity:0.57;}
	.st8{clip-path:url(#SVGID_9_);}
	.st9{fill:none;stroke:#FFFFFF;stroke-miterlimit:10;}
	.st10{clip-path:url(#SVGID_3_);fill:url(#SVGID_10_);}
	.st11{clip-path:url(#SVGID_3_);fill:url(#SVGID_11_);}
	.st12{clip-path:url(#SVGID_3_);fill:url(#SVGID_12_);}
	.st13{clip-path:url(#SVGID_3_);fill:url(#SVGID_13_);}
	.st14{clip-path:url(#SVGID_3_);fill:url(#SVGID_14_);}
	.st15{clip-path:url(#SVGID_3_);fill:url(#SVGID_15_);}
	.st16{clip-path:url(#SVGID_17_);}
	.st17{clip-path:url(#SVGID_3_);fill:url(#SVGID_18_);}
	.st18{clip-path:url(#SVGID_20_);}
	.st19{opacity:0.29;clip-path:url(#SVGID_3_);}
	.st20{opacity:0.29;}
	.st21{clip-path:url(#SVGID_22_);}
	.st22{fill:url(#SVGID_23_);}
	.st23{clip-path:url(#SVGID_25_);fill:url(#SVGID_26_);}
	.st24{clip-path:url(#SVGID_25_);fill:url(#SVGID_27_);}
	.st25{clip-path:url(#SVGID_25_);fill:url(#SVGID_28_);}
	.st26{clip-path:url(#SVGID_25_);fill:url(#SVGID_29_);}
	.st27{opacity:0.57;clip-path:url(#SVGID_25_);}
	.st28{clip-path:url(#SVGID_31_);}
	.st29{clip-path:url(#SVGID_25_);fill:url(#SVGID_32_);}
	.st30{clip-path:url(#SVGID_25_);fill:url(#SVGID_33_);}
	.st31{clip-path:url(#SVGID_25_);fill:url(#SVGID_34_);}
	.st32{clip-path:url(#SVGID_25_);fill:url(#SVGID_35_);}
	.st33{clip-path:url(#SVGID_25_);fill:url(#SVGID_36_);}
	.st34{clip-path:url(#SVGID_25_);fill:url(#SVGID_37_);}
	.st35{clip-path:url(#SVGID_39_);}
	.st36{clip-path:url(#SVGID_25_);fill:url(#SVGID_40_);}
	.st37{clip-path:url(#SVGID_42_);}
	.st38{opacity:0.29;clip-path:url(#SVGID_25_);}
	.st39{clip-path:url(#SVGID_44_);}
	.st40{fill:url(#SVGID_45_);}
	.st41{clip-path:url(#SVGID_47_);fill:url(#SVGID_48_);}
	.st42{clip-path:url(#SVGID_47_);fill:url(#SVGID_49_);}
	.st43{clip-path:url(#SVGID_47_);fill:url(#SVGID_50_);}
	.st44{clip-path:url(#SVGID_47_);fill:url(#SVGID_51_);}
	.st45{opacity:0.57;clip-path:url(#SVGID_47_);}
	.st46{clip-path:url(#SVGID_53_);}
	.st47{clip-path:url(#SVGID_47_);fill:url(#SVGID_54_);}
	.st48{clip-path:url(#SVGID_47_);fill:url(#SVGID_55_);}
	.st49{clip-path:url(#SVGID_47_);fill:url(#SVGID_56_);}
	.st50{clip-path:url(#SVGID_47_);fill:url(#SVGID_57_);}
	.st51{clip-path:url(#SVGID_47_);fill:url(#SVGID_58_);}
	.st52{clip-path:url(#SVGID_47_);fill:url(#SVGID_59_);}
	.st53{clip-path:url(#SVGID_61_);}
	.st54{clip-path:url(#SVGID_47_);fill:url(#SVGID_62_);}
	.st55{clip-path:url(#SVGID_64_);}
	.st56{opacity:0.29;clip-path:url(#SVGID_47_);}
	.st57{clip-path:url(#SVGID_66_);}
	.st58{fill:url(#SVGID_67_);}
	.st59{clip-path:url(#SVGID_69_);fill:url(#SVGID_70_);}
	.st60{clip-path:url(#SVGID_69_);fill:url(#SVGID_71_);}
	.st61{clip-path:url(#SVGID_69_);fill:url(#SVGID_72_);}
	.st62{clip-path:url(#SVGID_69_);fill:url(#SVGID_73_);}
	.st63{opacity:0.57;clip-path:url(#SVGID_69_);}
	.st64{clip-path:url(#SVGID_75_);}
	.st65{clip-path:url(#SVGID_69_);fill:url(#SVGID_76_);}
	.st66{clip-path:url(#SVGID_69_);fill:url(#SVGID_77_);}
	.st67{clip-path:url(#SVGID_69_);fill:url(#SVGID_78_);}
	.st68{clip-path:url(#SVGID_69_);fill:url(#SVGID_79_);}
	.st69{clip-path:url(#SVGID_69_);fill:url(#SVGID_80_);}
	.st70{clip-path:url(#SVGID_69_);fill:url(#SVGID_81_);}
	.st71{clip-path:url(#SVGID_83_);}
	.st72{clip-path:url(#SVGID_69_);fill:url(#SVGID_84_);}
	.st73{clip-path:url(#SVGID_86_);}
	.st74{opacity:0.29;clip-path:url(#SVGID_69_);}
	.st75{clip-path:url(#SVGID_88_);}
	.st76{opacity:0.32;clip-path:url(#SVGID_90_);}
	.st77{opacity:0.96;}
	.st78{fill:url(#SVGID_91_);}
	.st79{fill:none;stroke:#000000;stroke-width:4;stroke-linecap:round;stroke-linejoin:round;stroke-miterlimit:10;}
	.st80{stroke:#000000;stroke-width:2;stroke-miterlimit:10;}
	.st81{clip-path:url(#SVGID_90_);fill:url(#SVGID_92_);}
	.st82{fill:none;stroke:#999999;stroke-miterlimit:10;}
	.st83{fill:#999999;}
	.st84{opacity:6.000000e-02;}
	.st85{fill:url(#SVGID_93_);}
	.st86{fill:url(#SVGID_94_);}
	.st87{fill:url(#SVGID_95_);}
	.st88{fill:url(#SVGID_96_);}
	.st89{fill:url(#SVGID_97_);}
	.st90{fill:url(#SVGID_98_);}
	.st91{fill:url(#SVGID_99_);}
	.st92{fill:url(#SVGID_100_);}
	.st93{fill:url(#SVGID_101_);}
	.st94{fill:url(#SVGID_102_);}
	.st95{fill:url(#SVGID_103_);}
	.st96{fill:url(#SVGID_104_);}
	.st97{fill:url(#SVGID_105_);}
	.st98{fill:url(#SVGID_106_);}
	.st99{fill:url(#SVGID_107_);}
	.st100{fill:url(#SVGID_108_);}
	.st101{fill:url(#SVGID_109_);}
	.st102{fill:url(#SVGID_110_);}
	.st103{fill:url(#SVGID_111_);}
	.st104{fill:url(#SVGID_112_);}
	.st105{fill:url(#SVGID_113_);}
	.st106{fill:url(#SVGID_114_);}
	.st107{fill:url(#SVGID_115_);}
	.st108{fill:url(#SVGID_116_);}
	.st109{fill:url(#SVGID_117_);}
	.st110{fill:url(#SVGID_118_);}
	.st111{fill:url(#SVGID_119_);}
	.st112{fill:url(#SVGID_120_);}
	.st113{fill:url(#SVGID_121_);}
	.st114{fill:url(#SVGID_122_);}
	.st115{fill:url(#SVGID_123_);}
	.st116{fill:url(#SVGID_124_);}
	.st117{fill:url(#SVGID_125_);}
	.st118{fill:url(#SVGID_126_);}
	.st119{fill:url(#SVGID_127_);}
	.st120{fill:url(#SVGID_128_);}
	.st121{fill:url(#SVGID_129_);}
	.st122{fill:url(#SVGID_130_);}
	.st123{fill:url(#SVGID_131_);}
	.st124{fill:url(#SVGID_132_);}
	.st125{fill:url(#SVGID_133_);}
	.st126{fill:#FFFFFF;}
	.st127{opacity:0.87;fill:url(#SVGID_134_);}
	.st128{fill:#AFAFAF;}
	.st129{fill:none;stroke:#848484;stroke-miterlimit:10;}
	.st130{fill:url(#SVGID_135_);stroke:#FFFFFF;stroke-width:3;stroke-linecap:round;stroke-linejoin:round;stroke-miterlimit:10;}
	.st131{fill:url(#SVGID_136_);}
	.st132{opacity:0.78;fill:#FFFFFF;}
	.st133{fill:#232323;}
	.st134{opacity:0.87;}
	.st135{fill:#62EF62;}
	.st136{fill:none;stroke:#FFFFFF;stroke-linecap:round;stroke-linejoin:round;stroke-miterlimit:10;}
	.st137{fill:url(#SVGID_137_);}
	.st138{fill:url(#SVGID_138_);}
	.st139{fill:url(#SVGID_139_);}
	.st140{fill:url(#SVGID_140_);}
	.st141{fill:url(#SVGID_141_);}
	.st142{fill:url(#SVGID_142_);}
	.st143{fill:url(#SVGID_143_);}
	.st144{fill:url(#SVGID_144_);}
	.st145{fill:url(#SVGID_145_);}
	.st146{fill:url(#SVGID_146_);}
	.st147{fill:url(#SVGID_147_);}
	.st148{fill:url(#SVGID_148_);}
	.st149{fill:url(#SVGID_149_);}
	.st150{fill:url(#SVGID_150_);}
	.st151{fill:url(#SVGID_151_);}
	.st152{fill:url(#SVGID_152_);}
	.st153{fill:url(#SVGID_153_);}
	.st154{fill:url(#SVGID_154_);}
	.st155{clip-path:url(#SVGID_156_);}
	.st156{fill:url(#SVGID_157_);}
	.st157{fill:url(#SVGID_158_);}
	.st158{stroke:#000000;stroke-miterlimit:10;}
	.st159{fill:url(#SVGID_159_);}
	.st160{fill:none;stroke:#000000;stroke-width:4;stroke-miterlimit:10;}
	.st161{fill:url(#SVGID_160_);}
	.st162{stroke:#000000;stroke-width:2;stroke-linecap:round;stroke-linejoin:round;stroke-miterlimit:10;}
	.st163{fill:url(#SVGID_161_);}
	.st164{stroke:#000000;stroke-width:0.75;stroke-miterlimit:10;}
	.st165{fill:url(#SVGID_162_);}
	.st166{fill:url(#SVGID_163_);}
	.st167{fill:url(#SVGID_164_);}
	.st168{fill:url(#SVGID_165_);}
	.st169{fill:url(#SVGID_166_);}
	.st170{fill:url(#SVGID_167_);}
	.st171{fill:url(#SVGID_168_);}
	.st172{fill:url(#SVGID_169_);}
	.st173{clip-path:url(#SVGID_171_);}
	.st174{fill:url(#SVGID_172_);}
	.st175{fill:url(#SVGID_173_);}
	.st176{fill:url(#SVGID_174_);}
	.st177{fill:url(#SVGID_175_);}
	.st178{fill:url(#SVGID_176_);}
	.st179{opacity:0.68;fill:#FFFFFF;}
	.st180{fill:#FFFFFF;stroke:#FFFFFF;stroke-width:3;stroke-linecap:round;stroke-linejoin:round;stroke-miterlimit:10;}
	.st181{fill:url(#SVGID_177_);}
	.st182{fill:url(#SVGID_178_);}
	.st183{fill:url(#SVGID_179_);}
	.st184{fill:url(#SVGID_180_);}
	.st185{fill:url(#SVGID_181_);}
	.st186{fill:url(#SVGID_182_);}
	.st187{fill:url(#SVGID_183_);}
	.st188{fill:url(#SVGID_184_);}
	.st189{clip-path:url(#SVGID_186_);}
	.st190{fill:url(#SVGID_187_);}
	.st191{fill:url(#SVGID_188_);}
	.st192{fill:#FFFFFF;stroke:#FFFFFF;stroke-miterlimit:10;}
	.st193{fill:url(#SVGID_189_);}
	.st194{fill:none;stroke:#000000;stroke-width:5;stroke-miterlimit:10;}
	.st195{fill:url(#SVGID_190_);}
	.st196{fill:url(#SVGID_191_);}
	.st197{fill:url(#SVGID_192_);}
	.st198{fill:url(#SVGID_193_);}
	.st199{fill:url(#SVGID_194_);}
	.st200{fill:url(#SVGID_195_);}
	.st201{fill:url(#SVGID_196_);}
	.st202{fill:url(#SVGID_197_);}
	.st203{fill:url(#SVGID_198_);}
	.st204{fill:url(#SVGID_199_);}
	.st205{clip-path:url(#SVGID_201_);}
	.st206{fill:url(#SVGID_202_);}
	.st207{fill:url(#SVGID_203_);}
	.st208{fill:url(#SVGID_204_);}
	.st209{fill:url(#SVGID_205_);}
	.st210{fill:url(#SVGID_206_);}
	.st211{fill:#03E25D;}
	.st212{fill:url(#SVGID_207_);}
	.st213{fill:url(#SVGID_208_);}
	.st214{opacity:0.96;fill:url(#SVGID_209_);}
	.st215{opacity:0.96;fill:url(#SVGID_210_);}
</style>
<g id="Fondos">
</g>
<g id="Elementos">
	<g>
		<path d="M108.7,101.6C108.7,101.5,108.7,101.5,108.7,101.6c7.5-8.2,12.3-18.4,13.7-29.6c0-0.2,0-0.4,0.1-0.7
			c0.1-0.9,0.2-1.8,0.3-2.7c0.1-1.1,0.1-2.3,0.1-3.4c0-29.7-24.1-53.8-53.8-53.8c-4.1,0-8.1,0.5-11.9,1.3c0-0.7-0.1-1.3-0.4-1.9
			L55.2,8c-0.5-0.9-1.3-1.6-2.3-1.9c-1-0.3-2-0.2-3,0.3l-17,8.8c-1.9,1-2.6,3.3-1.7,5.2l1.5,2.9c0.3,0.5,0.7,0.9,1.1,1.3
			c-11.5,9.9-18.8,24.5-18.8,40.8c0,1.1,0,2.3,0.1,3.4c0.1,0.9,0.1,1.8,0.2,2.6c0,0.2,0,0.5,0.1,0.7c1.4,11,6.1,21.2,13.4,29.3
			c0.1,0.1,0.1,0.2,0.2,0.2c0.6,0.7,1.3,1.3,1.9,2c0.2,0.2,0.3,0.3,0.5,0.5c0.6,0.6,1.2,1.1,1.8,1.6c0.2,0.2,0.5,0.4,0.7,0.7
			c0.6,0.5,1.1,0.9,1.7,1.4c0.3,0.3,0.6,0.5,1,0.8c0.4,0.3,0.8,0.6,1.2,0.9l-4.9,11.6c-1.2,2.8-0.9,6.2,0.7,8.6
			c1.1,1.7,2.9,2.7,4.7,2.7h60.7c1.8,0,3.5-1,4.7-2.7c1.6-2.4,1.9-5.8,0.7-8.6l-4.8-11.4c0.4-0.2,0.7-0.5,1.1-0.8
			c0.3-0.2,0.6-0.5,1-0.7c0.6-0.5,1.2-0.9,1.8-1.4c0.2-0.2,0.4-0.4,0.7-0.6c0.7-0.6,1.3-1.2,2-1.8c0.1-0.1,0.2-0.2,0.3-0.3
			C107.3,103,108,102.3,108.7,101.6z M37.1,103.7c-0.6-0.5-1.2-1.1-1.8-1.6c-0.1-0.1-0.2-0.2-0.4-0.3l3.6-3.5c2.1-0.3,4-1.5,5.3-3
			l-4.3,10.4c-0.7-0.5-1.4-1-2-1.6C37.3,103.9,37.2,103.8,37.1,103.7z M30.8,97.4c-0.5-0.6-1-1.3-1.5-1.9c-0.1-0.1-0.2-0.2-0.3-0.4
			c-0.5-0.7-1-1.3-1.4-2c-0.1-0.1-0.2-0.3-0.3-0.4c-0.5-0.7-0.9-1.4-1.3-2.1c-0.1-0.1-0.2-0.3-0.2-0.4c-0.4-0.7-0.8-1.4-1.2-2.1
			c-0.1-0.2-0.2-0.3-0.2-0.5c-0.4-0.7-0.7-1.4-1-2.2c-0.1-0.2-0.2-0.4-0.2-0.6c-0.3-0.7-0.6-1.4-0.9-2.1c-0.1-0.2-0.2-0.4-0.2-0.7
			c-0.2-0.7-0.5-1.4-0.7-2.1c-0.1-0.3-0.2-0.5-0.2-0.8c-0.2-0.7-0.4-1.3-0.5-2c-0.1-0.3-0.2-0.7-0.2-1c-0.1-0.6-0.3-1.2-0.4-1.9
			c-0.1-0.4-0.1-0.9-0.2-1.3c-0.1-0.6-0.2-1.1-0.2-1.7c-0.1-0.6-0.1-1.1-0.2-1.7c0-0.4-0.1-0.9-0.1-1.3c0-0.4,0-0.8,0-1.2h5.1
			c-0.6,1.2-1,2.6-1,4c0,4.7,3.9,8.6,8.6,8.6s8.6-3.9,8.6-8.6c0-1.5-0.4-2.8-1-4h4.2c0.7,0.2,1.4,0.3,2.1,0.3c0.7,0,1.4-0.1,2.1-0.3
			h7.9l-2.8,6.6c-0.7-0.2-1.5-0.3-2.3-0.3c-4.7,0-8.6,3.9-8.6,8.6c0,0.2,0,0.4,0,0.6c-1.4-0.9-3-1.5-4.8-1.5c-4.7,0-8.6,3.9-8.6,8.6
			c0,3.5,2.1,6.5,5.1,7.9L32.2,99c-0.4-0.4-0.7-0.8-1.1-1.2C31,97.7,30.9,97.6,30.8,97.4z M36.5,35.8c0,0,0,0.1,0,0.1
			c0,4.7,3.9,8.6,8.6,8.6c0,0,0.1,0,0.1,0l14,14c-0.2,0.3-0.4,0.7-0.5,1l-1.6,3.8h-4.3c0.8-1.3,1.3-2.8,1.3-4.5
			c0-4.7-3.9-8.6-8.6-8.6c-4.7,0-8.6,3.9-8.6,8.6c0,1.6,0.5,3.2,1.3,4.5h-3.1c-1-0.5-2.2-0.7-3.4-0.7s-2.4,0.3-3.4,0.7h-9.3
			c0.5-12.3,5.4-23.4,13.1-31.9L36.5,35.8z M46.6,40.4l-6-6c0.6-1.9,2.4-3.3,4.5-3.3c2.6,0,4.8,2.1,4.8,4.8
			C49.9,38,48.5,39.8,46.6,40.4z M44.1,63.3c-1.9-0.6-3.3-2.4-3.3-4.5c0-2.6,2.1-4.8,4.8-4.8c2.6,0,4.8,2.1,4.8,4.8
			c0,2.1-1.4,3.9-3.3,4.5H44.1z M36.5,71.2c0,2.6-2.1,4.8-4.8,4.8c-2.6,0-4.8-2.1-4.8-4.8c0-1.7,0.9-3.2,2.3-4h4.9
			C35.6,68,36.5,69.5,36.5,71.2z M32.4,89.8c0-2.6,2.1-4.8,4.8-4.8c2.6,0,4.7,2.1,4.7,4.6l-5,4.9C34.4,94.3,32.4,92.3,32.4,89.8z
			 M49.1,82.6l-2.4,2.3c-0.6-0.8-0.9-1.8-0.9-2.8c0-2.6,2.1-4.8,4.8-4.8c0.2,0,0.5,0,0.7,0.1L49.1,82.6z M61.6,55.4L49.5,43.3
			c2.5-1.5,4.2-4.2,4.2-7.4c0-4.7-3.9-8.6-8.6-8.6c-3.1,0-5.9,1.7-7.4,4.2l-2.8-2.8c8.5-7.9,19.7-12.9,32.1-13.4v37.2
			C65,52.9,63.1,53.9,61.6,55.4z M70.9,15.3c12.4,0.5,23.6,5.5,32.1,13.4l-10.3,10c-1.5-2.7-4.3-4.5-7.6-4.5c-4.7,0-8.6,3.9-8.6,8.6
			c0,3.2,1.7,5.9,4.3,7.4l-5,4.8c-1.4-1.3-3.1-2.1-4.9-2.5V15.3z M118.7,69.8c0,0.5-0.1,1-0.2,1.6c-0.1,0.6-0.2,1.3-0.3,1.9
			c-0.1,0.3-0.1,0.7-0.2,1c-0.1,0.7-0.3,1.5-0.5,2.2c0,0.2-0.1,0.4-0.1,0.7c-0.2,0.8-0.4,1.6-0.7,2.4c0,0.1-0.1,0.2-0.1,0.4
			c-0.3,0.9-0.6,1.7-0.9,2.6c0,0,0,0.1,0,0.1c-0.4,1.2-0.9,2.3-1.4,3.4c0-0.2,0-0.4,0-0.6c0-4.7-3.9-8.6-8.6-8.6s-8.6,3.9-8.6,8.6
			c0,1.2,0.3,2.4,0.7,3.4c-1.1-0.6-2.3-1-3.6-1.1l-6-5.9l-6.2-14.8H96c1.5,1.3,3.5,2.1,5.6,2.1c2.2,0,4.1-0.8,5.6-2.1h11.6
			c0,0.4,0,0.8,0,1.2C118.8,68.8,118.8,69.3,118.7,69.8z M102.3,95.7c-0.1-0.9-0.3-1.8-0.7-2.7c1.2,0.7,2.7,1.1,4.2,1.1
			c1.9,0,3.7-0.6,5.1-1.7c-1.5,2.3-3.2,4.6-5.2,6.6L102.3,95.7z M101.1,85.5c0-2.6,2.1-4.8,4.8-4.8c2.6,0,4.8,2.1,4.8,4.8
			c0,2.6-2.1,4.8-4.8,4.8C103.2,90.2,101.1,88.1,101.1,85.5z M96.9,60.7c0-2.6,2.1-4.8,4.8-4.8c2.6,0,4.8,2.1,4.8,4.8
			c0,1-0.3,1.9-0.8,2.6h-7.9C97.2,62.5,96.9,61.6,96.9,60.7z M109.9,63.3c0.3-0.8,0.4-1.7,0.4-2.6c0-4.7-3.9-8.6-8.6-8.6
			s-8.6,3.9-8.6,8.6c0,0.9,0.1,1.8,0.4,2.6h-13l-1.6-3.8c-0.2-0.5-0.5-1-0.7-1.5l6.9-6.7c0,0,0,0,0,0c4.7,0,8.4-3.7,8.6-8.3l12-11.6
			c7.8,8.5,12.7,19.6,13.2,31.9H109.9z M80.4,42.8c0-2.6,2.1-4.8,4.8-4.8c2.2,0,4,1.5,4.6,3.5l-5.9,5.7C81.8,46.8,80.4,45,80.4,42.8
			z M92.9,91.8l5.6,5.5c-0.2,1.4-1.1,2.6-2.3,3.3l-3.6-8.7C92.6,91.8,92.7,91.8,92.9,91.8z M98.3,105.7l-0.3-0.7l-0.4-0.8
			c1.7-0.9,3-2.2,3.8-3.9l1.6,1.6c-1.3,1.2-2.8,2.4-4.2,3.5C98.7,105.4,98.5,105.6,98.3,105.7z M36.3,21.4
			C36.3,21.4,36.3,21.4,36.3,21.4l-1.5-2.9c0,0,0,0,0,0l17-8.8c0,0,0,0,0,0l1.5,2.9c0,0,0,0,0,0l0.5,1c-6.2,1.8-12,4.8-17.1,8.6
			L36.3,21.4z M100.7,127.3c-0.2,0.4-0.8,1-1.5,1H38.5c-0.7,0-1.2-0.6-1.5-1c-0.7-1.1-1.2-3.1-0.4-5l4.6-10.9l0,0l10.1-24.2l0,0
			l3.5-8.2v0l7.5-18c1.3-3,3.7-4.8,6.5-4.8s5.2,1.8,6.5,4.8l13.8,32.8v0l3.3,7.8h0l4.2,9.9v0l4.5,10.8
			C101.9,124.1,101.4,126.2,100.7,127.3z"/>
		<path d="M71.2,59.9c-1.5-0.6-3.2-0.6-4.7,0.1c-1.5,0.7-2.7,1.9-3.3,3.4c-0.6,1.5-0.6,3.2,0.1,4.7c0.7,1.5,1.9,2.7,3.4,3.3
			c0.1,0,0.2,0,0.3,0.1l-0.1,23c-0.7,0.3-1.4,0.7-2,1.3c-1,1-1.5,2.4-1.5,3.9l0.2,7.9c0.1,2.9,2.5,5.3,5.4,5.3c0,0,0.1,0,0.1,0
			c3-0.1,5.4-2.5,5.3-5.5l-0.2-7.9c0-1.4-0.6-2.8-1.7-3.8c-0.5-0.5-1.2-0.9-1.8-1.2l0.1-23c0.2-0.1,0.4-0.1,0.6-0.2
			c1.5-0.7,2.7-1.9,3.3-3.4v0c0.6-1.5,0.6-3.2-0.1-4.7C74,61.6,72.8,60.5,71.2,59.9z M69.1,108.9c-0.9,0-1.6-0.7-1.6-1.5l-0.2-7.9
			c0-0.4,0.1-0.8,0.4-1.1c0.3-0.3,0.7-0.5,1.1-0.5c0.4,0,0.8,0.1,1.1,0.4c0.3,0.3,0.5,0.7,0.5,1.1l0.2,7.9
			C70.6,108.2,69.9,108.9,69.1,108.9z M71.2,66.4c-0.5,1.2-1.8,1.8-3,1.3c-0.6-0.2-1-0.7-1.3-1.2c-0.2-0.6-0.3-1.2,0-1.8
			c0.4-0.9,1.2-1.5,2.2-1.5c0.3,0,0.6,0.1,0.8,0.2c0.6,0.2,1,0.7,1.3,1.2C71.4,65.2,71.4,65.9,71.2,66.4z"/>
	</g>
</g>
</svg>
