<?xml version="1.0" encoding="utf-8"?>
<!-- Generator: Adobe Illustrator 24.0.0, SVG Export Plug-In . SVG Version: 6.00 Build 0)  -->
<svg version="1.1" xmlns="http://www.w3.org/2000/svg" xmlns:xlink="http://www.w3.org/1999/xlink" x="0px" y="0px"
	 viewBox="0 0 138 138" style="enable-background:new 0 0 138 138;" xml:space="preserve">
<style type="text/css">
	.st0{opacity:0.11;}
	.st1{fill:url(#SVGID_1_);}
	.st2{clip-path:url(#SVGID_3_);fill:url(#SVGID_4_);}
	.st3{clip-path:url(#SVGID_3_);fill:url(#SVGID_5_);}
	.st4{clip-path:url(#SVGID_3_);fill:url(#SVGID_6_);}
	.st5{clip-path:url(#SVGID_3_);fill:url(#SVGID_7_);}
	.st6{opacity:0.57;clip-path:url(#SVGID_3_);}
	.st7{opacity:0.57;}
	.st8{clip-path:url(#SVGID_9_);}
	.st9{fill:none;stroke:#FFFFFF;stroke-miterlimit:10;}
	.st10{clip-path:url(#SVGID_3_);fill:url(#SVGID_10_);}
	.st11{clip-path:url(#SVGID_3_);fill:url(#SVGID_11_);}
	.st12{clip-path:url(#SVGID_3_);fill:url(#SVGID_12_);}
	.st13{clip-path:url(#SVGID_3_);fill:url(#SVGID_13_);}
	.st14{clip-path:url(#SVGID_3_);fill:url(#SVGID_14_);}
	.st15{clip-path:url(#SVGID_3_);fill:url(#SVGID_15_);}
	.st16{clip-path:url(#SVGID_17_);}
	.st17{clip-path:url(#SVGID_3_);fill:url(#SVGID_18_);}
	.st18{clip-path:url(#SVGID_20_);}
	.st19{opacity:0.29;clip-path:url(#SVGID_3_);}
	.st20{opacity:0.29;}
	.st21{clip-path:url(#SVGID_22_);}
	.st22{fill:url(#SVGID_23_);}
	.st23{clip-path:url(#SVGID_25_);fill:url(#SVGID_26_);}
	.st24{clip-path:url(#SVGID_25_);fill:url(#SVGID_27_);}
	.st25{clip-path:url(#SVGID_25_);fill:url(#SVGID_28_);}
	.st26{clip-path:url(#SVGID_25_);fill:url(#SVGID_29_);}
	.st27{opacity:0.57;clip-path:url(#SVGID_25_);}
	.st28{clip-path:url(#SVGID_31_);}
	.st29{clip-path:url(#SVGID_25_);fill:url(#SVGID_32_);}
	.st30{clip-path:url(#SVGID_25_);fill:url(#SVGID_33_);}
	.st31{clip-path:url(#SVGID_25_);fill:url(#SVGID_34_);}
	.st32{clip-path:url(#SVGID_25_);fill:url(#SVGID_35_);}
	.st33{clip-path:url(#SVGID_25_);fill:url(#SVGID_36_);}
	.st34{clip-path:url(#SVGID_25_);fill:url(#SVGID_37_);}
	.st35{clip-path:url(#SVGID_39_);}
	.st36{clip-path:url(#SVGID_25_);fill:url(#SVGID_40_);}
	.st37{clip-path:url(#SVGID_42_);}
	.st38{opacity:0.29;clip-path:url(#SVGID_25_);}
	.st39{clip-path:url(#SVGID_44_);}
	.st40{fill:url(#SVGID_45_);}
	.st41{clip-path:url(#SVGID_47_);fill:url(#SVGID_48_);}
	.st42{clip-path:url(#SVGID_47_);fill:url(#SVGID_49_);}
	.st43{clip-path:url(#SVGID_47_);fill:url(#SVGID_50_);}
	.st44{clip-path:url(#SVGID_47_);fill:url(#SVGID_51_);}
	.st45{opacity:0.57;clip-path:url(#SVGID_47_);}
	.st46{clip-path:url(#SVGID_53_);}
	.st47{clip-path:url(#SVGID_47_);fill:url(#SVGID_54_);}
	.st48{clip-path:url(#SVGID_47_);fill:url(#SVGID_55_);}
	.st49{clip-path:url(#SVGID_47_);fill:url(#SVGID_56_);}
	.st50{clip-path:url(#SVGID_47_);fill:url(#SVGID_57_);}
	.st51{clip-path:url(#SVGID_47_);fill:url(#SVGID_58_);}
	.st52{clip-path:url(#SVGID_47_);fill:url(#SVGID_59_);}
	.st53{clip-path:url(#SVGID_61_);}
	.st54{clip-path:url(#SVGID_47_);fill:url(#SVGID_62_);}
	.st55{clip-path:url(#SVGID_64_);}
	.st56{opacity:0.29;clip-path:url(#SVGID_47_);}
	.st57{clip-path:url(#SVGID_66_);}
	.st58{fill:url(#SVGID_67_);}
	.st59{clip-path:url(#SVGID_69_);fill:url(#SVGID_70_);}
	.st60{clip-path:url(#SVGID_69_);fill:url(#SVGID_71_);}
	.st61{clip-path:url(#SVGID_69_);fill:url(#SVGID_72_);}
	.st62{clip-path:url(#SVGID_69_);fill:url(#SVGID_73_);}
	.st63{opacity:0.57;clip-path:url(#SVGID_69_);}
	.st64{clip-path:url(#SVGID_75_);}
	.st65{clip-path:url(#SVGID_69_);fill:url(#SVGID_76_);}
	.st66{clip-path:url(#SVGID_69_);fill:url(#SVGID_77_);}
	.st67{clip-path:url(#SVGID_69_);fill:url(#SVGID_78_);}
	.st68{clip-path:url(#SVGID_69_);fill:url(#SVGID_79_);}
	.st69{clip-path:url(#SVGID_69_);fill:url(#SVGID_80_);}
	.st70{clip-path:url(#SVGID_69_);fill:url(#SVGID_81_);}
	.st71{clip-path:url(#SVGID_83_);}
	.st72{clip-path:url(#SVGID_69_);fill:url(#SVGID_84_);}
	.st73{clip-path:url(#SVGID_86_);}
	.st74{opacity:0.29;clip-path:url(#SVGID_69_);}
	.st75{clip-path:url(#SVGID_88_);}
	.st76{opacity:0.32;clip-path:url(#SVGID_90_);}
	.st77{opacity:0.96;}
	.st78{fill:url(#SVGID_91_);}
	.st79{fill:none;stroke:#000000;stroke-width:4;stroke-linecap:round;stroke-linejoin:round;stroke-miterlimit:10;}
	.st80{stroke:#000000;stroke-width:2;stroke-miterlimit:10;}
	.st81{clip-path:url(#SVGID_90_);fill:url(#SVGID_92_);}
	.st82{fill:none;stroke:#999999;stroke-miterlimit:10;}
	.st83{fill:#999999;}
	.st84{opacity:6.000000e-02;}
	.st85{fill:url(#SVGID_93_);}
	.st86{fill:url(#SVGID_94_);}
	.st87{fill:url(#SVGID_95_);}
	.st88{fill:url(#SVGID_96_);}
	.st89{fill:url(#SVGID_97_);}
	.st90{fill:url(#SVGID_98_);}
	.st91{fill:url(#SVGID_99_);}
	.st92{fill:url(#SVGID_100_);}
	.st93{fill:url(#SVGID_101_);}
	.st94{fill:url(#SVGID_102_);}
	.st95{fill:url(#SVGID_103_);}
	.st96{fill:url(#SVGID_104_);}
	.st97{fill:url(#SVGID_105_);}
	.st98{fill:url(#SVGID_106_);}
	.st99{fill:url(#SVGID_107_);}
	.st100{fill:url(#SVGID_108_);}
	.st101{fill:url(#SVGID_109_);}
	.st102{fill:url(#SVGID_110_);}
	.st103{fill:url(#SVGID_111_);}
	.st104{fill:url(#SVGID_112_);}
	.st105{fill:url(#SVGID_113_);}
	.st106{fill:url(#SVGID_114_);}
	.st107{fill:url(#SVGID_115_);}
	.st108{fill:url(#SVGID_116_);}
	.st109{fill:url(#SVGID_117_);}
	.st110{fill:url(#SVGID_118_);}
	.st111{fill:url(#SVGID_119_);}
	.st112{fill:url(#SVGID_120_);}
	.st113{fill:url(#SVGID_121_);}
	.st114{fill:url(#SVGID_122_);}
	.st115{fill:url(#SVGID_123_);}
	.st116{fill:url(#SVGID_124_);}
	.st117{fill:url(#SVGID_125_);}
	.st118{fill:url(#SVGID_126_);}
	.st119{fill:url(#SVGID_127_);}
	.st120{fill:url(#SVGID_128_);}
	.st121{fill:url(#SVGID_129_);}
	.st122{fill:url(#SVGID_130_);}
	.st123{fill:url(#SVGID_131_);}
	.st124{fill:url(#SVGID_132_);}
	.st125{fill:url(#SVGID_133_);}
	.st126{fill:#FFFFFF;}
	.st127{opacity:0.87;fill:url(#SVGID_134_);}
	.st128{fill:#AFAFAF;}
	.st129{fill:none;stroke:#848484;stroke-miterlimit:10;}
	.st130{fill:url(#SVGID_135_);stroke:#FFFFFF;stroke-width:3;stroke-linecap:round;stroke-linejoin:round;stroke-miterlimit:10;}
	.st131{fill:url(#SVGID_136_);}
	.st132{opacity:0.78;fill:#FFFFFF;}
	.st133{fill:#232323;}
	.st134{opacity:0.87;}
	.st135{fill:#62EF62;}
	.st136{fill:none;stroke:#FFFFFF;stroke-linecap:round;stroke-linejoin:round;stroke-miterlimit:10;}
	.st137{fill:url(#SVGID_137_);}
	.st138{fill:url(#SVGID_138_);}
	.st139{fill:url(#SVGID_139_);}
	.st140{fill:url(#SVGID_140_);}
	.st141{fill:url(#SVGID_141_);}
	.st142{fill:url(#SVGID_142_);}
	.st143{fill:url(#SVGID_143_);}
	.st144{fill:url(#SVGID_144_);}
	.st145{fill:url(#SVGID_145_);}
	.st146{fill:url(#SVGID_146_);}
	.st147{fill:url(#SVGID_147_);}
	.st148{fill:url(#SVGID_148_);}
	.st149{fill:url(#SVGID_149_);}
	.st150{fill:url(#SVGID_150_);}
	.st151{fill:url(#SVGID_151_);}
	.st152{fill:url(#SVGID_152_);}
	.st153{fill:url(#SVGID_153_);}
	.st154{fill:url(#SVGID_154_);}
	.st155{clip-path:url(#SVGID_156_);}
	.st156{fill:url(#SVGID_157_);}
	.st157{fill:url(#SVGID_158_);}
	.st158{stroke:#000000;stroke-miterlimit:10;}
	.st159{fill:url(#SVGID_159_);}
	.st160{fill:none;stroke:#000000;stroke-width:4;stroke-miterlimit:10;}
	.st161{fill:url(#SVGID_160_);}
	.st162{stroke:#000000;stroke-width:2;stroke-linecap:round;stroke-linejoin:round;stroke-miterlimit:10;}
	.st163{fill:url(#SVGID_161_);}
	.st164{stroke:#000000;stroke-width:0.75;stroke-miterlimit:10;}
	.st165{fill:url(#SVGID_162_);}
	.st166{fill:url(#SVGID_163_);}
	.st167{fill:url(#SVGID_164_);}
	.st168{fill:url(#SVGID_165_);}
	.st169{fill:url(#SVGID_166_);}
	.st170{fill:url(#SVGID_167_);}
	.st171{fill:url(#SVGID_168_);}
	.st172{fill:url(#SVGID_169_);}
	.st173{clip-path:url(#SVGID_171_);}
	.st174{fill:url(#SVGID_172_);}
	.st175{fill:url(#SVGID_173_);}
	.st176{fill:url(#SVGID_174_);}
	.st177{fill:url(#SVGID_175_);}
	.st178{fill:url(#SVGID_176_);}
	.st179{opacity:0.68;fill:#FFFFFF;}
	.st180{fill:#FFFFFF;stroke:#FFFFFF;stroke-width:3;stroke-linecap:round;stroke-linejoin:round;stroke-miterlimit:10;}
	.st181{fill:url(#SVGID_177_);}
	.st182{fill:url(#SVGID_178_);}
	.st183{fill:url(#SVGID_179_);}
	.st184{fill:url(#SVGID_180_);}
	.st185{fill:url(#SVGID_181_);}
	.st186{fill:url(#SVGID_182_);}
	.st187{fill:url(#SVGID_183_);}
	.st188{fill:url(#SVGID_184_);}
	.st189{clip-path:url(#SVGID_186_);}
	.st190{fill:url(#SVGID_187_);}
	.st191{fill:url(#SVGID_188_);}
	.st192{fill:#FFFFFF;stroke:#FFFFFF;stroke-miterlimit:10;}
	.st193{fill:url(#SVGID_189_);}
	.st194{fill:none;stroke:#000000;stroke-width:5;stroke-miterlimit:10;}
	.st195{fill:url(#SVGID_190_);}
	.st196{fill:url(#SVGID_191_);}
	.st197{fill:url(#SVGID_192_);}
	.st198{fill:url(#SVGID_193_);}
	.st199{fill:url(#SVGID_194_);}
	.st200{fill:url(#SVGID_195_);}
	.st201{fill:url(#SVGID_196_);}
	.st202{fill:url(#SVGID_197_);}
	.st203{fill:url(#SVGID_198_);}
	.st204{fill:url(#SVGID_199_);}
	.st205{clip-path:url(#SVGID_201_);}
	.st206{fill:url(#SVGID_202_);}
	.st207{fill:url(#SVGID_203_);}
	.st208{fill:url(#SVGID_204_);}
	.st209{fill:url(#SVGID_205_);}
	.st210{fill:url(#SVGID_206_);}
	.st211{fill:#03E25D;}
	.st212{fill:url(#SVGID_207_);}
	.st213{fill:url(#SVGID_208_);}
	.st214{opacity:0.96;fill:url(#SVGID_209_);}
	.st215{opacity:0.96;fill:url(#SVGID_210_);}
</style>
<g id="Fondos">
</g>
<g id="Elementos">
	<g>
		<g>
			<g>
				<g>
					<path class="st126" d="M58.6,132.1c-1.5,0-3-0.4-4.3-1.3l-6.6-4.3c-1.4-0.9-3.2-0.8-4.6,0.2l-4.6,3.6c-2.7,2.1-6.5,2.3-9.3,0.4
						l-7.1-4.8c-2.2-1.5-3.5-3.9-3.5-6.5V13.8c0-4.3,3.5-7.9,7.9-7.9h84.9c4.3,0,7.9,3.5,7.9,7.9v105.8c0,2.5-1.2,4.8-3.2,6.3
						l-6.1,4.6c-2.8,2.1-6.7,2.1-9.5,0l-4.6-3.5c-1.4-1.1-3.4-1.1-4.8,0.1l-3.6,3c-2.8,2.3-6.8,2.4-9.8,0.2l-4.7-3.5
						c-1.4-1-3.3-1-4.7,0l-5.1,3.8C61.9,131.6,60.3,132.1,58.6,132.1z M45.5,121.8c1.5,0,3,0.4,4.3,1.3l6.6,4.3
						c1.4,0.9,3.2,0.8,4.5-0.1l5.1-3.8c2.8-2.1,6.7-2.1,9.5,0l4.7,3.5c1.4,1.1,3.4,1,4.8-0.1l3.6-3c2.8-2.4,6.9-2.4,9.8-0.2l4.6,3.5
						c1.4,1,3.3,1,4.7,0l6.1-4.6c1-0.7,1.6-1.9,1.6-3.1V13.8c0-2.1-1.7-3.9-3.9-3.9H26.5c-2.1,0-3.9,1.7-3.9,3.9v105.6
						c0,1.3,0.6,2.5,1.7,3.2l7.1,4.8c1.4,1,3.3,0.9,4.6-0.2l4.6-3.6C42,122.4,43.8,121.8,45.5,121.8z"/>
				</g>
			</g>
			<path class="st126" d="M101.7,30.5H35.3c-0.8,0-1.5-0.7-1.5-1.5V27c0-0.8,0.7-1.5,1.5-1.5h66.4c0.8,0,1.5,0.7,1.5,1.5V29
				C103.2,29.8,102.5,30.5,101.7,30.5z"/>
			<path class="st126" d="M102.3,48.5H35.9c-0.8,0-1.5-0.7-1.5-1.5V45c0-0.8,0.7-1.5,1.5-1.5h66.4c0.8,0,1.5,0.7,1.5,1.5v1.9
				C103.8,47.8,103.1,48.5,102.3,48.5z"/>
			<path class="st126" d="M66.5,67.4H35.3c-0.8,0-1.5-0.7-1.5-1.5V64c0-0.8,0.7-1.5,1.5-1.5h31.2c0.8,0,1.5,0.7,1.5,1.5v1.9
				C68,66.7,67.3,67.4,66.5,67.4z"/>
			<path class="st126" d="M65.9,86.2H34.6c-0.8,0-1.5-0.7-1.5-1.5v-1.9c0-0.8,0.7-1.5,1.5-1.5h31.2c0.8,0,1.5,0.7,1.5,1.5v1.9
				C67.4,85.5,66.7,86.2,65.9,86.2z"/>
			<path class="st126" d="M65.9,105.2H34.6c-0.8,0-1.5-0.7-1.5-1.5v-1.9c0-0.8,0.7-1.5,1.5-1.5h31.2c0.8,0,1.5,0.7,1.5,1.5v1.9
				C67.4,104.5,66.7,105.2,65.9,105.2z"/>
		</g>
		<g>
			<g>
				<path class="st126" d="M101.2,91.8c0,4-2.9,8.5-9.3,9.7v4.6c0,0.5-0.4,1-1,1h-3.7c-0.5,0-1-0.5-1-1v-4.3
					c-3.2-0.2-6.5-1.1-8.5-2.4c-0.4-0.3-0.6-0.8-0.4-1.2l1.4-3.5c0.1-0.3,0.3-0.5,0.6-0.6c0.3-0.1,0.6-0.1,0.8,0.1
					c2.3,1.3,5.2,2.1,8,2.1c3.5,0,6-1.7,6-4.1c0-2.2-1.7-3.8-6-5.3c-5.4-1.9-10.4-4.4-10.4-10c0-4.6,3.5-8.2,8.9-9.3v-4.5
					c0-0.5,0.4-1,1-1h3.7c0.5,0,1,0.5,1,1v4.1c2.7,0.2,5,0.8,7.1,1.9c0.5,0.2,0.7,0.8,0.5,1.3L98.3,74c-0.1,0.2-0.3,0.4-0.6,0.5
					c-0.3,0.1-0.5,0.1-0.8,0c-1-0.5-3.3-1.7-7-1.7c-3.9,0-5.2,1.9-5.2,3.5c0,2,1.6,3.2,6.7,5C98.3,83.8,101.2,86.9,101.2,91.8z"/>
			</g>
		</g>
	</g>
</g>
</svg>
