<svg width="126" height="70" viewBox="0 0 126 70" fill="none" xmlns="http://www.w3.org/2000/svg">
<path d="M0.152832 0.91748H12.5897V28.4418H22.9368V38.2282H0.152832V0.91748ZM19.7766 33.7427V32.4175H7.23778V5.35195H5.75963V33.7427H19.7766Z" fill="black"/>
<path d="M22.3762 19.5728C22.3762 16.8714 22.8859 14.3228 23.9053 11.9782C24.9248 9.58253 26.3519 7.49272 28.1359 5.75971C29.9199 3.97573 31.9587 2.54854 34.3544 1.52913C36.75 0.509709 39.2985 0 42 0C44.7015 0 47.25 0.509709 49.6456 1.52913C52.0413 2.54854 54.1311 3.97573 55.9151 5.70874C57.699 7.49272 59.0752 9.58253 60.1456 11.9272C61.1651 14.3228 61.6748 16.8714 61.6748 19.5218C61.6748 22.2233 61.1651 24.7718 60.1456 27.1165C59.1262 29.5121 57.699 31.6019 55.9151 33.335C54.1311 35.1189 52.0413 36.4952 49.6456 37.5146C47.25 38.534 44.7015 39.0437 42 39.0437C39.2985 39.0437 36.75 38.534 34.3544 37.5146C31.9587 36.4952 29.8689 35.068 28.085 33.335C26.301 31.551 24.9248 29.4612 23.8544 27.1165C22.8859 24.8228 22.3762 22.2743 22.3762 19.5728ZM27.6262 19.5728C27.6262 21.5607 27.983 23.3956 28.7476 25.1286C29.5121 26.8617 30.5316 28.3908 31.8568 29.716C33.182 31.0413 34.7112 32.0607 36.4442 32.7743C38.1772 33.5388 40.0631 33.8956 42.051 33.8956C44.0388 33.8956 45.8738 33.5388 47.6578 32.7743C49.3908 32.0097 50.9199 30.9903 52.2451 29.716C53.5704 28.3908 54.5898 26.9126 55.3544 25.1286C56.1189 23.3956 56.4757 21.5607 56.4757 19.5728C56.4757 17.585 56.1189 15.75 55.3544 14.017C54.5898 12.284 53.5704 10.7549 52.2451 9.42961C50.9199 8.10437 49.3908 7.08495 47.6578 6.37136C45.9248 5.6068 44.0388 5.25 42.051 5.25C40.0631 5.25 38.2282 5.6068 36.4442 6.37136C34.7112 7.13592 33.182 8.15534 31.8568 9.42961C30.5316 10.7549 29.5121 12.233 28.7476 14.017C28.034 15.75 27.6262 17.6359 27.6262 19.5728ZM42 32.4685C40.216 32.4685 38.534 32.1117 36.9539 31.449C35.4248 30.7864 34.0485 29.8689 32.8762 28.6966C31.7039 27.5243 30.7864 26.1481 30.1238 24.6189C29.4612 23.0898 29.1044 21.4078 29.1044 19.6238C29.1044 17.8398 29.4612 16.1578 30.1238 14.6286C30.7864 13.0995 31.7039 11.7233 32.8762 10.551C34.0485 9.37864 35.4248 8.46117 36.9539 7.79854C38.483 7.13592 40.1651 6.77913 42 6.77913C43.784 6.77913 45.466 7.13592 47.0461 7.79854C48.5752 8.46117 49.9515 9.37864 51.1238 10.551C52.2961 11.7233 53.2136 13.0995 53.9272 14.6286C54.5898 16.1578 54.9466 17.8398 54.9466 19.6238C54.9466 21.4078 54.5898 23.0898 53.9272 24.6189C53.2646 26.1481 52.3471 27.5243 51.1238 28.6966C49.9515 29.8689 48.5752 30.7864 47.0461 31.449C45.466 32.1117 43.784 32.4685 42 32.4685ZM34.1505 19.5728C34.1505 20.6432 34.3544 21.6626 34.7621 22.6311C35.1699 23.5995 35.7306 24.4151 36.4442 25.1286C37.1578 25.8422 37.9733 26.4029 38.9418 26.8107C39.9102 27.2185 40.9296 27.4223 42 27.4223C43.0704 27.4223 44.0898 27.2185 45.0583 26.8107C46.0267 26.4029 46.8422 25.8422 47.5558 25.1286C48.2694 24.4151 48.8301 23.5995 49.2379 22.6311C49.6456 21.6626 49.8495 20.6432 49.8495 19.5728C49.8495 18.5024 49.6456 17.483 49.2379 16.5146C48.8301 15.5461 48.2694 14.7306 47.5558 14.017C46.8422 13.3034 46.0267 12.7427 45.0583 12.335C44.0898 11.9272 43.0704 11.7233 42 11.7233C40.9296 11.7233 39.9102 11.9272 38.9418 12.335C37.9733 12.7427 37.1578 13.3034 36.4442 14.017C35.7306 14.7306 35.1699 15.5461 34.7621 16.5146C34.3544 17.483 34.1505 18.5024 34.1505 19.5728Z" fill="black"/>
<path d="M67.9951 10.7039H61.114V0.91748H87.2621V10.7039H80.381V38.2282H68.0461V10.7039H67.9951ZM74.8761 33.7427V6.72816H82.8786V5.40292H65.3956V6.72816H73.398V33.7937H74.8761V33.7427Z" fill="black"/>
<path d="M86.6504 19.5728C86.6504 16.8714 87.1601 14.3228 88.1795 11.9781C89.1989 9.58252 90.6261 7.49271 92.4101 5.7597C94.1941 3.97572 96.2839 2.59951 98.6795 1.58009C101.075 0.560673 103.624 0.0509644 106.325 0.0509644C109.027 0.0509644 111.575 0.560673 113.971 1.58009C116.366 2.59951 118.456 4.02669 120.24 5.7597C122.024 7.54368 123.4 9.63349 124.471 11.9781C125.49 14.3738 126 16.9223 126 19.5728C126 22.2743 125.49 24.8228 124.471 27.1675C123.451 29.5631 122.024 31.6529 120.24 33.3859C118.456 35.1699 116.366 36.5461 113.971 37.5655C111.575 38.5849 109.027 39.0947 106.325 39.0947C103.624 39.0947 101.075 38.5849 98.6795 37.5655C96.2839 36.5461 94.1941 35.1189 92.4101 33.3859C90.6261 31.6019 89.2499 29.5121 88.1795 27.1675C87.1601 24.8228 86.6504 22.2743 86.6504 19.5728ZM91.9514 19.5728C91.9514 21.5607 92.3082 23.3956 93.0727 25.1286C93.8373 26.8616 94.8567 28.3908 96.1819 29.716C97.5072 31.0413 99.0363 32.0607 100.769 32.7743C102.502 33.5388 104.388 33.8956 106.376 33.8956C108.364 33.8956 110.199 33.5388 111.983 32.7743C113.716 32.0097 115.245 30.9903 116.57 29.716C117.896 28.3908 118.915 26.9126 119.68 25.1286C120.444 23.3956 120.801 21.5607 120.801 19.5728C120.801 17.5849 120.444 15.75 119.68 14.017C118.915 12.284 117.896 10.7548 116.57 9.42961C115.245 8.10436 113.716 7.08495 111.983 6.37135C110.25 5.60679 108.364 5.24999 106.376 5.24999C104.388 5.24999 102.553 5.60679 100.769 6.37135C99.0363 7.13592 97.5072 8.15533 96.1819 9.42961C94.8567 10.7548 93.8373 12.233 93.0727 14.017C92.3082 15.75 91.9514 17.6359 91.9514 19.5728ZM106.325 32.4684C104.541 32.4684 102.859 32.1116 101.279 31.449C99.7499 30.7864 98.3737 29.8689 97.2014 28.6966C96.029 27.5243 95.1116 26.1481 94.398 24.6189C93.7353 23.0898 93.3785 21.4078 93.3785 19.6238C93.3785 17.8398 93.7353 16.1578 94.398 14.6286C95.0606 13.0995 95.9781 11.7233 97.2014 10.551C98.3737 9.37863 99.7499 8.46116 101.279 7.79854C102.808 7.13592 104.49 6.77912 106.325 6.77912C108.16 6.77912 109.791 7.13592 111.371 7.79854C112.9 8.46116 114.277 9.37863 115.449 10.551C116.621 11.7233 117.539 13.0995 118.201 14.6286C118.864 16.1578 119.221 17.8398 119.221 19.6238C119.221 21.4078 118.864 23.0898 118.201 24.6189C117.539 26.1481 116.621 27.5243 115.449 28.6966C114.277 29.8689 112.9 30.7864 111.371 31.449C109.791 32.1116 108.109 32.4684 106.325 32.4684ZM98.4247 19.5728C98.4247 20.6432 98.6285 21.6626 99.0363 22.6311C99.4441 23.5995 100.005 24.415 100.718 25.1286C101.432 25.8422 102.247 26.4029 103.216 26.8107C104.184 27.2184 105.204 27.4223 106.274 27.4223C107.345 27.4223 108.364 27.2184 109.332 26.8107C110.301 26.4029 111.116 25.8422 111.83 25.1286C112.544 24.415 113.104 23.5995 113.512 22.6311C113.92 21.6626 114.124 20.6432 114.124 19.5728C114.124 18.5024 113.92 17.483 113.512 16.5146C113.104 15.5461 112.544 14.7306 111.83 14.017C111.116 13.3034 110.301 12.7427 109.332 12.3349C108.364 11.9272 107.345 11.7233 106.274 11.7233C105.204 11.7233 104.184 11.9272 103.216 12.3349C102.247 12.7427 101.432 13.3034 100.718 14.017C100.005 14.7306 99.4441 15.5461 99.0363 16.5146C98.6795 17.483 98.4247 18.5024 98.4247 19.5728Z" fill="black"/>
<path d="M18.8592 42.1529C17.6359 41.2864 16.2087 40.6238 14.5777 40.216C12.9466 39.8083 11.2136 39.6044 9.32767 39.6044H0V68.8617H9.37864V61.8786C11.2646 61.8786 12.9976 61.6748 14.6286 61.267C16.2597 60.8592 17.6869 60.1966 18.9102 59.3301C20.1335 58.4636 21.1019 57.2913 21.7646 55.8641C22.4782 54.4369 22.835 52.7549 22.835 50.716C22.835 48.6772 22.4782 46.9951 21.7646 45.568C21.051 44.1918 20.0825 43.0194 18.8592 42.1529ZM12.3859 53.1626C11.8252 53.7233 10.9587 54.0291 9.73544 54.0291H9.32767V47.5049H9.73544C10.9587 47.5049 11.8252 47.8107 12.3859 48.3714C12.9466 48.932 13.2015 49.7476 13.2015 50.767C13.2015 51.7864 12.9466 52.6019 12.3859 53.1626Z" fill="black"/>
<path d="M39.7573 57.801C39.7573 58.8204 39.5534 59.585 39.1456 60.1456C38.7379 60.7063 38.0243 60.9612 37.0048 60.9612C35.9854 60.9612 35.3228 60.7063 34.8641 60.1456C34.4563 59.585 34.2015 58.8204 34.2015 57.801V39.6044H24.8738V58.2087C24.8738 60.1456 25.1796 61.8277 25.7403 63.2549C26.301 64.682 27.1165 65.8544 28.1869 66.8228C29.2573 67.7403 30.5315 68.4539 32.0097 68.9126C33.4879 69.3714 35.1699 69.6262 37.0048 69.6262C38.8398 69.6262 40.5218 69.3714 42 68.9126C43.4782 68.4539 44.7524 67.7403 45.8228 66.8228C46.8932 65.9053 47.7087 64.682 48.2694 63.2549C48.8301 61.8277 49.1359 60.1456 49.1359 58.2087V39.6044H39.7573V57.801Z" fill="black"/>
<path d="M67.8933 50.8689L59.7889 39.6044H52.0923V68.8617H61.267V57.6481L69.3204 68.8617H77.068V39.6044H67.8933V50.8689Z" fill="black"/>
<path d="M99.0875 41.2864V39.6044H78.5972V47.301H84.0001V68.8617H93.6846V64.4782C91.9515 61.8786 90.8812 58.7694 90.8812 55.3544C90.8812 49.3398 94.1943 44.0898 99.0875 41.2864Z" fill="black"/>
<path d="M106.172 47.25C101.687 47.25 98.0679 50.8689 98.0679 55.3544C98.0679 59.8398 101.687 63.5097 106.172 63.5097C110.658 63.5097 114.328 59.8908 114.328 55.3544C114.328 50.9199 110.658 47.25 106.172 47.25Z" fill="black"/>
</svg>
