<svg width="113" height="133" viewBox="0 0 113 133" fill="none" xmlns="http://www.w3.org/2000/svg">
<path d="M98.0973 101.08C105.91 92.5584 110.974 81.7258 112.421 70.1711C112.421 69.8822 112.421 69.7378 112.421 69.4489C112.566 68.5823 112.566 67.5713 112.711 66.7047C112.855 65.5492 112.855 64.2493 112.855 63.0938C112.855 32.0405 87.5352 6.76448 56.4277 6.76448C52.0871 6.76448 48.0359 7.19778 43.9846 8.20882C43.9846 7.48665 43.84 6.76448 43.5506 6.18674L41.959 3.00919C41.525 1.99815 40.6569 1.27598 39.644 0.987107C38.6312 0.698239 37.4738 0.69824 36.6056 1.27598L18.8092 10.5198C16.7836 11.5308 16.0602 13.9862 17.073 16.0083L18.6645 19.0414C18.9539 19.6191 19.388 20.0524 19.822 20.3413C7.66837 30.5961 0 45.9062 0 62.9494C0 64.1049 0 65.2603 0.144686 66.5602C0.144686 67.4268 0.289373 68.4379 0.434059 69.3045C0.434059 69.5934 0.434059 69.7378 0.434059 70.0267C1.88092 81.5814 6.80026 92.1251 14.4686 100.647C14.6133 100.791 14.6133 100.791 14.758 100.936C15.3367 101.658 16.0602 102.38 16.7836 102.958C16.9283 103.102 17.073 103.247 17.2177 103.391C17.7964 103.969 18.5198 104.546 19.0986 105.124C19.388 105.413 19.6773 105.557 19.822 105.846C20.4008 106.28 20.9795 106.857 21.5583 107.291C21.8476 107.58 22.2817 107.868 22.5711 108.157C23.0051 108.446 23.4392 108.735 23.8732 109.024L18.8092 121.156C17.507 124.045 17.9411 127.656 19.5327 130.111C20.6901 131.989 22.5711 133 24.452 133H88.114C89.9949 133 91.8758 131.989 93.0333 130.111C94.7695 127.511 95.0589 124.045 93.7567 121.156L88.6927 109.168C89.1268 108.879 89.4161 108.591 89.8502 108.302C90.1396 108.013 90.5736 107.724 90.863 107.58C91.4417 107.146 92.1652 106.569 92.7439 106.135C93.0333 105.991 93.178 105.702 93.4674 105.557C94.1908 104.98 94.9142 104.402 95.493 103.68C95.6376 103.535 95.7823 103.391 95.7823 103.391C96.6505 102.524 97.3739 101.802 98.0973 101.08ZM23.0051 103.247C22.2817 102.669 21.7029 102.091 21.1242 101.513C20.9795 101.369 20.8348 101.224 20.6901 101.224L24.452 97.4692C26.6223 97.0359 28.6479 95.8804 29.9501 94.2916L25.3201 105.124C24.5967 104.546 23.8732 103.969 23.1498 103.391C23.2945 103.535 23.1498 103.391 23.0051 103.247ZM16.3496 96.747C15.7708 96.0248 15.1921 95.4471 14.758 94.7249C14.6133 94.5805 14.6133 94.4361 14.4686 94.2916C13.8899 93.5695 13.4558 92.8473 13.0218 92.1251C12.8771 91.9807 12.8771 91.8362 12.7324 91.6918C12.2983 90.9696 11.8643 90.2474 11.4302 89.5253C11.2855 89.3808 11.2855 89.2364 11.1408 89.092C10.7068 88.3698 10.2727 87.6476 9.98336 86.9255C9.83867 86.781 9.83867 86.6366 9.69398 86.4922C9.25992 85.77 8.97055 85.0478 8.68118 84.1812C8.53649 84.0368 8.53649 83.7479 8.39181 83.6035C8.10243 82.8813 7.81306 82.1591 7.52369 81.2925C7.23432 81.1481 7.23432 80.8592 7.08963 80.7148C6.80026 79.9926 6.51088 79.2704 6.3662 78.5483C6.22151 78.2594 6.22151 77.9706 6.07682 77.6817C5.93214 76.9595 5.64277 76.2373 5.49808 75.5152C5.35339 75.2263 5.35339 74.793 5.20871 74.5041C5.06402 73.782 4.91933 73.2042 4.77465 72.482C4.62996 72.0487 4.62996 71.6154 4.62996 71.1821C4.48528 70.6044 4.48528 70.0267 4.34059 69.4489C4.34059 68.8712 4.1959 68.2934 4.1959 67.7157C4.1959 67.2824 4.05122 66.8491 4.05122 66.2714C4.05122 65.8381 4.05122 65.4048 4.05122 65.1159H9.40461C8.68118 66.4158 8.39181 67.8601 8.39181 69.3045C8.39181 74.2153 12.443 78.2594 17.3624 78.2594C22.2817 78.2594 26.3329 74.2153 26.3329 69.3045C26.3329 67.7157 25.8988 66.2714 25.3201 65.1159H29.6607C30.3841 65.2603 31.1076 65.4048 31.831 65.4048C32.5544 65.4048 33.2779 65.2603 34.0013 65.1159H42.2484L39.3547 72.0487C38.6312 71.9043 37.7631 71.7599 37.0397 71.7599C32.1204 71.7599 28.0691 75.804 28.0691 80.7148C28.0691 80.8592 28.0691 81.1481 28.0691 81.2925C26.6223 80.2815 24.886 79.7038 23.0051 79.7038C18.0858 79.7038 14.0346 83.7479 14.0346 88.6587C14.0346 92.2695 16.2049 95.4471 19.388 96.8914L17.7964 98.3358C17.3624 97.9025 17.073 97.4692 16.6389 97.0359C16.6389 97.0359 16.4942 96.8914 16.3496 96.747ZM22.4264 32.1849V32.3293C22.4264 37.2401 26.4776 41.2843 31.3969 41.2843H31.5416L46.2996 56.0165C46.1549 56.3054 45.8656 56.7387 45.7209 57.0276L44.1293 60.9273H39.644C40.5122 59.6274 40.9462 57.8942 40.9462 56.161C40.9462 51.2502 36.895 47.2061 31.9757 47.2061C27.0563 47.2061 23.0051 51.2502 23.0051 56.161C23.0051 57.8942 23.4392 59.483 24.3073 60.9273H21.1242C19.9667 60.494 18.8092 60.2051 17.507 60.2051C16.2049 60.2051 15.0474 60.494 13.8899 60.9273H4.05122C4.48528 48.0727 9.69398 36.3735 17.7964 27.563L22.4264 32.1849ZM32.9885 36.9512L26.767 30.7406C27.4904 28.7185 29.2266 27.2741 31.5416 27.2741C34.2907 27.2741 36.4609 29.4407 36.4609 32.1849C36.4609 34.4958 35.0141 36.3735 32.9885 36.9512ZM30.3841 60.9273C28.3585 60.2051 26.9117 58.4719 26.9117 56.161C26.9117 53.4167 29.0819 51.2502 31.831 51.2502C34.58 51.2502 36.7503 53.4167 36.7503 56.161C36.7503 58.3275 35.3035 60.2051 33.2779 60.9273H30.3841ZM22.4264 69.3045C22.4264 72.0487 20.2561 74.2153 17.507 74.2153C14.758 74.2153 12.5877 72.0487 12.5877 69.3045C12.5877 67.5713 13.6005 65.9825 15.0474 65.1159H20.2561C21.4136 65.8381 22.4264 67.4268 22.4264 69.3045ZM18.0858 88.6587C18.0858 85.9144 20.2561 83.7479 23.0051 83.7479C25.7542 83.7479 27.9245 85.9144 27.9245 88.5142L22.7157 93.5695C20.2561 93.425 18.0858 91.4029 18.0858 88.6587ZM35.5928 81.1481L33.1332 83.6035C32.5544 82.7369 32.1204 81.7258 32.1204 80.7148C32.1204 77.9706 34.2907 75.804 37.0397 75.804C37.3291 75.804 37.6184 75.804 37.7631 75.804L35.5928 81.1481ZM48.7593 52.6946L36.0269 39.9843C38.6312 38.3956 40.5122 35.5069 40.5122 32.1849C40.5122 27.2741 36.4609 23.23 31.5416 23.23C28.2138 23.23 25.3201 24.9632 23.7286 27.7074L20.8348 24.8188C29.8054 16.4416 41.525 11.2419 54.5467 10.8086V49.8059C52.2318 50.0947 50.3508 51.1058 48.7593 52.6946ZM58.4533 10.6642C71.475 11.0975 83.1946 16.4416 92.1652 24.6743L81.3137 35.218C79.7222 32.4738 76.8284 30.4517 73.356 30.4517C68.4366 30.4517 64.3854 34.4958 64.3854 39.4066C64.3854 42.7286 66.1216 45.6173 68.8707 47.2061L63.662 52.2613C62.2151 50.9613 60.4789 50.0947 58.598 49.6614V10.6642H58.4533ZM108.659 67.7157C108.659 68.2934 108.515 68.8712 108.515 69.3045C108.37 70.0267 108.37 70.6044 108.225 71.3266C108.225 71.6154 108.081 72.0487 108.081 72.3376C107.936 73.0598 107.791 73.9264 107.647 74.6486C107.647 74.9374 107.502 75.0819 107.502 75.3707C107.357 76.2373 107.068 77.1039 106.778 77.9705C106.778 78.115 106.634 78.2594 106.634 78.4038C106.344 79.2705 106.055 80.2815 105.766 81.1481V81.2925C105.332 82.448 104.753 83.7479 104.319 84.9034C104.319 84.759 104.319 84.4701 104.319 84.3257C104.319 79.4149 100.268 75.3707 95.3483 75.3707C90.4289 75.3707 86.3777 79.4149 86.3777 84.3257C86.3777 85.6256 86.6671 86.781 87.1012 87.9365C85.9437 87.3588 84.6415 86.9255 83.3393 86.781L76.9731 80.5704L70.4622 65.1159H85.0755C86.6671 66.5602 88.6927 67.2824 91.0077 67.2824C93.3227 67.2824 95.3483 66.4158 96.9398 65.1159H109.093C109.093 65.5492 109.093 65.9825 109.093 66.4158C108.804 66.7047 108.659 67.2824 108.659 67.7157ZM91.4417 94.8694C91.2971 93.8583 91.1524 92.9917 90.7183 92.1251C92.0205 92.8473 93.4673 93.2806 95.0589 93.2806C97.0845 93.2806 98.9654 92.5584 100.412 91.5474C98.8207 94.0027 96.9398 96.3137 95.0589 98.4802L91.4417 94.8694ZM90.1396 84.1812C90.1396 81.437 92.3099 79.2705 95.0589 79.2705C97.8079 79.2705 99.9782 81.437 99.9782 84.1812C99.9782 86.9255 97.8079 89.092 95.0589 89.092C92.3099 89.2364 90.1396 86.9255 90.1396 84.1812ZM85.799 58.1831C85.799 55.4388 87.9693 53.2723 90.7183 53.2723C93.4674 53.2723 95.6376 55.4388 95.6376 58.1831C95.6376 59.1941 95.3483 60.2051 94.7695 60.9273H86.5224C86.0883 60.2051 85.799 59.1941 85.799 58.1831ZM99.3995 60.9273C99.6889 60.0607 99.8335 59.1941 99.8335 58.1831C99.8335 53.2723 95.7823 49.2281 90.863 49.2281C85.9437 49.2281 81.8924 53.2723 81.8924 58.1831C81.8924 59.1941 82.0371 60.0607 82.3265 60.9273H68.726L67.1344 57.0276C66.8451 56.4498 66.7004 56.0165 66.411 55.4388L73.6453 48.506C78.5647 48.506 82.4712 44.6062 82.6159 39.8399L95.2036 27.7074C103.306 36.5179 108.515 48.2171 108.949 61.0717H99.3995V60.9273ZM68.4366 39.551C68.4366 36.8068 70.6069 34.6403 73.356 34.6403C75.6709 34.6403 77.5519 36.2291 78.1306 38.3956L71.9091 44.4618C69.8835 43.5952 68.4366 41.7176 68.4366 39.551ZM81.4584 90.8252L87.2458 96.6026C86.9565 98.0469 86.0883 99.3468 84.7862 100.069L81.0243 90.9696C81.3137 90.8252 81.3137 90.8252 81.4584 90.8252ZM87.2458 105.413L86.9565 104.546L86.5224 103.68C88.2586 102.813 89.7055 101.369 90.5736 99.6357L92.3099 101.224C90.863 102.524 89.4161 103.68 87.8246 104.835C87.5352 105.124 87.3905 105.269 87.2458 105.413ZM22.137 17.1637L20.5455 14.1306L38.3419 4.88683L39.9334 7.91995L40.5122 8.93099C34.0013 10.8086 27.9245 13.9862 22.5711 17.8859L22.137 17.1637ZM89.7055 127.945C89.4161 128.378 88.8374 128.956 88.114 128.956H24.452C23.7286 128.956 23.1498 128.234 22.8604 127.945C22.137 126.789 21.7029 124.623 22.4264 122.745L27.201 111.335L37.9078 86.0589L41.525 77.3928L49.4827 58.6164C50.7849 55.4388 53.3892 53.5612 56.283 53.5612C59.1767 53.5612 61.781 55.4388 63.0832 58.6164L77.5519 92.9917L81.0243 101.08L85.3649 111.479L90.1396 122.745C91.0077 124.767 90.5736 126.789 89.7055 127.945Z" fill="black"/>
<path d="M58.7426 57.3165C57.1511 56.7387 55.4148 56.7387 53.8233 57.4609C52.2318 58.1831 51.0743 59.483 50.3508 61.0717C49.7721 62.6605 49.7721 64.3937 50.4955 65.9825C51.2189 67.5713 52.5211 68.7268 54.1127 69.4489C54.2574 69.4489 54.2574 69.4489 54.402 69.5934L54.2574 93.7139C53.5339 94.0027 52.8105 94.436 52.2317 95.0138C51.2189 96.1693 50.6402 97.6136 50.6402 99.0579L50.7849 107.291C50.7849 110.324 53.3892 112.779 56.4277 112.779H56.5723C59.7554 112.779 62.2151 110.179 62.0704 107.002V98.7691C62.0704 97.3247 61.347 95.8804 60.3342 94.7249C59.7554 94.1472 59.1767 93.7139 58.4533 93.5694L58.5979 69.4489C58.7426 69.4489 59.032 69.3045 59.1767 69.3045C60.7682 68.5823 61.9257 67.2824 62.6492 65.6936C63.2279 64.1049 63.2279 62.3717 62.5045 60.7829C61.6364 59.1941 60.4789 58.0386 58.7426 57.3165ZM56.5723 108.735C55.7042 108.735 54.9808 108.013 54.8361 107.146L54.6914 98.9135C54.6914 98.4802 54.8361 98.0469 55.1255 97.758C55.4148 97.4692 55.8489 97.3247 56.283 97.1803C56.717 97.1803 57.1511 97.3247 57.4405 97.6136C57.7298 97.9025 57.8745 98.3358 58.0192 98.7691L58.1639 107.002C58.1639 108.013 57.4405 108.735 56.5723 108.735ZM58.7426 64.2493C58.3086 65.5492 56.8617 66.1269 55.5595 65.6936C54.9808 65.4048 54.5467 64.9715 54.2574 64.3937C53.968 63.816 53.968 63.0938 54.2574 62.5161C54.6914 61.505 55.5595 60.9273 56.5723 60.9273C56.8617 60.9273 57.1511 60.9273 57.4405 61.0717C58.0192 61.3606 58.4533 61.7939 58.7426 62.3717C58.8873 62.9494 59.032 63.6716 58.7426 64.2493Z" fill="black"/>
</svg>
