<?xml version="1.0" encoding="utf-8"?>
<!-- Generator: Adobe Illustrator 24.0.0, SVG Export Plug-In . SVG Version: 6.00 Build 0)  -->
<svg version="1.1" id="Capa_1" xmlns="http://www.w3.org/2000/svg" xmlns:xlink="http://www.w3.org/1999/xlink" x="0px" y="0px"
	 viewBox="0 0 138 138" style="enable-background:new 0 0 138 138;" xml:space="preserve">
<g id="Fondos">
</g>
<g id="Elementos">
	<g>
		<path d="M107.3,100.4C107.3,100.3,107.3,100.3,107.3,100.4c7.2-7.9,11.8-17.7,13.2-28.5c0-0.2,0-0.4,0.1-0.7
			c0.1-0.8,0.2-1.7,0.3-2.6c0.1-1,0.1-2.3,0.1-3.3c0-28.6-23.3-51.9-51.9-51.9c-3.9,0-7.8,0.5-11.4,1.2c0-0.7-0.1-1.2-0.4-1.9
			l-1.5-2.7c-0.5-0.8-1.2-1.5-2.3-1.9c-0.9-0.3-2-0.2-2.9,0.3l-16.4,8.4c-1.9,0.9-2.5,3.2-1.6,5l1.4,2.8c0.3,0.5,0.7,0.8,1,1.2
			c-11,9.8-18,23.9-18,39.6c0,1,0,2.3,0.1,3.3c0.1,0.8,0.1,1.7,0.2,2.5c0,0.2,0,0.5,0.1,0.7c1.3,10.6,5.9,20.4,12.9,28.2
			c0.1,0.1,0.1,0.2,0.2,0.2c0.6,0.7,1.2,1.2,1.9,2c0.2,0.2,0.3,0.3,0.5,0.5c0.6,0.6,1.1,1,1.7,1.5c0.2,0.2,0.5,0.4,0.7,0.7
			c0.6,0.5,1,0.8,1.6,1.3c0.3,0.3,0.6,0.5,0.9,0.8s0.8,0.6,1.1,0.8l-4.7,11.2c-1.1,2.7-0.8,6,0.7,8.3c1,1.6,2.8,2.6,4.5,2.6h58.4
			c1.7,0,3.4-0.9,4.5-2.6c1.5-2.3,1.9-5.6,0.7-8.3l-4.6-11c0.4-0.2,0.7-0.5,1-0.8c0.3-0.2,0.6-0.5,0.9-0.7c0.6-0.5,1.1-0.8,1.7-1.3
			c0.2-0.2,0.4-0.4,0.7-0.6c0.7-0.6,1.2-1.1,2-1.7c0.1-0.1,0.2-0.2,0.3-0.3C106,101.8,106.6,101.1,107.3,100.4z M38.3,102.5
			c-0.6-0.5-1.1-1-1.7-1.5c-0.1-0.1-0.2-0.2-0.4-0.3l3.5-3.4c2.1-0.3,3.8-1.4,5.1-2.9l-4.1,10c-0.7-0.5-1.3-0.9-2-1.5
			C38.5,102.7,38.4,102.6,38.3,102.5z M32.2,96.4c-0.5-0.6-0.9-1.2-1.4-1.9c-0.1-0.1-0.2-0.2-0.3-0.4c-0.5-0.7-0.9-1.2-1.3-2
			c-0.1-0.1-0.2-0.3-0.3-0.4c-0.5-0.7-0.8-1.3-1.2-2.1c-0.1-0.1-0.2-0.3-0.2-0.4c-0.4-0.7-0.8-1.3-1.1-2.1c-0.1-0.2-0.2-0.3-0.2-0.5
			c-0.4-0.7-0.7-1.3-0.9-2.2c-0.1-0.2-0.2-0.4-0.2-0.6c-0.3-0.7-0.6-1.3-0.8-2.1c-0.1-0.2-0.2-0.4-0.2-0.7c-0.2-0.7-0.5-1.3-0.7-2.1
			c-0.1-0.3-0.2-0.5-0.2-0.8c-0.2-0.7-0.4-1.2-0.5-2c-0.1-0.3-0.2-0.7-0.2-0.9c-0.1-0.6-0.3-1.1-0.4-1.9c-0.1-0.4-0.1-0.8-0.2-1.2
			c-0.1-0.6-0.2-1-0.2-1.6c-0.1-0.6-0.1-1-0.2-1.6c0-0.4-0.1-0.8-0.1-1.2c0-0.4,0-0.8,0-1.1h4.9c-0.6,1.1-0.9,2.5-0.9,3.8
			c0,4.5,3.8,8.3,8.3,8.3s8.3-3.8,8.3-8.3c0-1.4-0.4-2.7-0.9-3.8h4c0.7,0.2,1.3,0.3,2.1,0.3c0.8,0,1.3-0.1,2.1-0.3h7.6l-2.7,6.4
			c-0.7-0.2-1.4-0.3-2.3-0.3c-4.5,0-8.3,3.8-8.3,8.3c0,0.2,0,0.4,0,0.6c-1.3-0.8-2.9-1.4-4.6-1.4c-4.5,0-8.3,3.8-8.3,8.3
			c0,3.4,2.1,6.3,4.9,7.6l-1.7,1.4c-0.4-0.4-0.7-0.8-1-1.1C32.4,96.7,32.3,96.6,32.2,96.4z M37.8,37L37.8,37c0,4.6,3.8,8.3,8.3,8.3
			h0.1l13.5,13.5c-0.2,0.3-0.4,0.7-0.5,0.9l-1.6,3.8h-4.1c0.8-1.2,1.2-2.7,1.2-4.3c0-4.5-3.8-8.3-8.3-8.3s-8.3,3.8-8.3,8.3
			c0,1.5,0.5,3.1,1.2,4.3h-3c-0.9-0.5-2.2-0.7-3.3-0.7c-1.1,0-2.3,0.3-3.3,0.7h-9c0.5-11.8,5.2-22.5,12.7-30.8L37.8,37z M47.4,41.5
			l-5.8-5.8c0.6-1.9,2.3-3.2,4.3-3.2c2.5,0,4.6,2.1,4.6,4.6C50.6,39.2,49.3,40.8,47.4,41.5z M45.1,63.5c-1.9-0.6-3.2-2.3-3.2-4.3
			c0-2.5,2.1-4.6,4.6-4.6s4.6,2.1,4.6,4.6c0,2.1-1.3,3.8-3.2,4.3H45.1z M37.8,71.1c0,2.5-2.1,4.6-4.6,4.6s-4.6-2.1-4.6-4.6
			c0-1.6,0.8-3.1,2.3-3.8h4.7C36.8,68,37.8,69.5,37.8,71.1z M33.8,89.1c0-2.5,2.1-4.6,4.6-4.6s4.5,2.1,4.5,4.4l-4.8,4.7
			C35.7,93.4,33.8,91.5,33.8,89.1z M49.9,82.1l-2.3,2.3c-0.6-0.8-0.8-1.7-0.8-2.7c0-2.5,2.1-4.6,4.6-4.6c0.2,0,0.5,0,0.7,0.1
			L49.9,82.1z M62,55.9L50.2,44.2c2.4-1.4,4-4,4-7.1c0-4.5-3.8-8.3-8.3-8.3c-3,0-5.7,1.6-7.1,4l-2.7-2.7c8.2-7.6,18.9-12.4,31-12.9
			V53C65.2,53.5,63.4,54.4,62,55.9z M70.9,17.3c11.9,0.5,22.7,5.3,31,12.9l-9.9,9.6c-1.4-2.6-4.1-4.3-7.3-4.3
			c-4.5,0-8.3,3.8-8.3,8.3c0,3.1,1.6,5.7,4.1,7.1l-4.9,4.7c-1.3-1.2-3-2.1-4.7-2.4V17.3z M116.9,69.8c0,0.5-0.1,0.9-0.2,1.5
			s-0.2,1.2-0.3,1.9c-0.1,0.3-0.1,0.7-0.2,0.9c-0.1,0.7-0.3,1.4-0.5,2.2c0,0.2-0.1,0.4-0.1,0.7c-0.2,0.8-0.4,1.5-0.7,2.3
			c0,0.1-0.1,0.2-0.1,0.4c-0.3,0.8-0.6,1.6-0.8,2.5v0.1c-0.4,1.1-0.8,2.3-1.3,3.3c0-0.2,0-0.4,0-0.6c0-4.5-3.8-8.3-8.3-8.3
			s-8.3,3.8-8.3,8.3c0,1.1,0.3,2.3,0.7,3.3c-1-0.6-2.3-0.9-3.5-1l-5.8-5.7l-6-14.3h13.5c1.4,1.2,3.4,2.1,5.4,2.1
			c2.2,0,3.9-0.8,5.4-2.1h11.2c0,0.4,0,0.8,0,1.1C117,68.8,117,69.3,116.9,69.8z M101.2,94.8c-0.1-0.8-0.3-1.7-0.7-2.6
			c1.1,0.7,2.6,1,4,1c1.9,0,3.6-0.6,4.9-1.6c-1.4,2.3-3.1,4.4-5,6.4L101.2,94.8z M100,84.9c0-2.5,2.1-4.6,4.6-4.6
			c2.5,0,4.6,2.1,4.6,4.6s-2.1,4.6-4.6,4.6C102,89.4,100,87.4,100,84.9z M95.9,61c0-2.5,2.1-4.6,4.6-4.6s4.6,2.1,4.6,4.6
			c0,0.9-0.3,1.9-0.8,2.5h-7.6C96.2,62.8,95.9,61.9,95.9,61z M108.5,63.5c0.3-0.8,0.4-1.6,0.4-2.5c0-4.5-3.8-8.3-8.3-8.3
			c-4.5,0-8.3,3.8-8.3,8.3c0,0.8,0.1,1.7,0.4,2.5H80.2l-1.5-3.7c-0.2-0.5-0.5-0.9-0.7-1.4l6.7-6.5l0,0c4.5,0,8.1-3.6,8.3-8
			l11.5-11.2c7.5,8.2,12.2,18.9,12.8,30.8C117.1,63.5,108.5,63.5,108.5,63.5z M80.1,43.8c0-2.5,2.1-4.6,4.6-4.6
			c2.2,0,3.8,1.4,4.4,3.4l-5.7,5.5C81.4,47.6,80.1,45.9,80.1,43.8z M92.1,90.9l5.4,5.3c-0.2,1.3-1,2.5-2.3,3.2L91.8,91
			C91.8,90.9,91.9,90.9,92.1,90.9z M97.2,104.3l-0.3-0.7l-0.4-0.8c1.6-0.8,2.9-2.2,3.7-3.8l1.5,1.5c-1.2,1.1-2.7,2.3-4,3.4
			C97.7,104.1,97.5,104.3,97.2,104.3z M37.6,23.1L37.6,23.1l-1.4-2.8l0,0l16.4-8.4l0,0l1.4,2.8l0,0l0.5,0.9
			c-6,1.7-11.5,4.6-16.5,8.3L37.6,23.1z M99.6,125.2c-0.2,0.4-0.8,0.9-1.4,0.9H39.6c-0.7,0-1.1-0.6-1.4-0.9c-0.7-1-1.1-3-0.4-4.8
			l4.4-10.5l0,0L52,86.5l0,0l3.4-7.9l0,0l7.2-17.4c1.2-2.9,3.6-4.6,6.3-4.6s5,1.7,6.3,4.6l13.3,31.6l0,0l3.2,7.5l0,0l4,9.6l0,0
			l4.3,10.4C100.7,122.1,100.2,124.1,99.6,125.2z"/>
		<path d="M71.2,60.3c-1.4-0.6-3.1-0.6-4.5,0.1c-1.4,0.7-2.6,1.9-3.2,3.3c-0.6,1.4-0.6,3.1,0.1,4.5c0.7,1.4,1.9,2.6,3.3,3.2
			c0.1,0,0.2,0,0.3,0.1L67,93.6c-0.7,0.3-1.3,0.7-2,1.2c-0.9,0.9-1.4,2.3-1.4,3.8l0.2,7.6c0.1,2.8,2.4,5.1,5.2,5.1h0.1
			c2.9-0.1,5.2-2.4,5.1-5.3L74,98.3c0-1.3-0.6-2.7-1.6-3.7c-0.5-0.5-1.1-0.8-1.7-1.1l0.1-22.1c0.2-0.1,0.4-0.1,0.6-0.2
			c1.4-0.7,2.6-1.9,3.2-3.3l0,0c0.6-1.4,0.6-3.1-0.1-4.5C73.9,61.9,72.8,60.8,71.2,60.3z M69.2,107.4c-0.8,0-1.5-0.7-1.5-1.4
			l-0.2-7.6c0-0.4,0.1-0.8,0.4-1c0.3-0.3,0.7-0.5,1-0.5c0.4,0,0.8,0.1,1,0.4s0.5,0.7,0.5,1l0.2,7.6
			C70.6,106.8,69.9,107.4,69.2,107.4z M71.2,66.5c-0.5,1.1-1.7,1.7-2.9,1.2c-0.6-0.2-0.9-0.7-1.2-1.1c-0.2-0.6-0.3-1.1,0-1.7
			c0.4-0.8,1.1-1.4,2.2-1.4c0.3,0,0.6,0.1,0.8,0.2c0.6,0.2,0.9,0.7,1.2,1.1C71.3,65.3,71.3,66,71.2,66.5z"/>
	</g>
</g>
</svg>
