<?xml version="1.0" encoding="utf-8"?>
<!-- Generator: Adobe Illustrator 24.0.0, SVG Export Plug-In . SVG Version: 6.00 Build 0)  -->
<svg version="1.1" id="Capa_1" xmlns="http://www.w3.org/2000/svg" xmlns:xlink="http://www.w3.org/1999/xlink" x="0px" y="0px"
	 viewBox="0 0 138 138" style="enable-background:new 0 0 138 138;" xml:space="preserve">
<g id="Fondos">
</g>
<g id="Elementos">
	<g>
		<g>
			<path d="M93.3,8.1H44.7c-8.4,0-15.2,6-15.2,13.5v94.9c0,7.4,6.8,13.5,15.2,13.5h48.7c8.4,0,15.2-6,15.2-13.5v-95
				C108.6,14.1,101.8,8.1,93.3,8.1z M33.7,21.5c0-5.4,4.9-9.7,11-9.7h48.7c6.1,0,11,4.4,11,9.7V28H33.7V21.5z M33.7,31.8h70.7v76.9
				H33.7V31.8z M104.3,116.4c0,5.4-4.9,9.7-11,9.7H44.7c-6.1,0-11-4.4-11-9.7v-4h70.7V116.4z"/>
		</g>
		<g>
			<path d="M77,23.5H61.2c-1.1,0-2-0.9-2-2V20c0-1.1,0.9-2,2-2H77c1.1,0,2,0.9,2,2v1.7C79,22.7,78.1,23.5,77,23.5z"/>
		</g>
		<g>
			<path d="M77,121.8H61.2c-1.1,0-2-0.9-2-2v-1.7c0-1.1,0.9-2,2-2H77c1.1,0,2,0.9,2,2v1.7C79,120.8,78.1,121.8,77,121.8z"/>
		</g>
		<g>
			<g>
				<path d="M82.7,78.5c0,4.2-3.2,9-10.3,10.2v6h-5.1v-5.8c-3.6-0.1-7.4-1.1-9.8-2.6l-0.3-0.2l1.9-4.8l0.5,0.3
					c2.6,1.5,6,2.4,9.1,2.4c4.3,0,7.3-2.1,7.3-5.1c0-2.7-2.1-4.6-7.1-6.4c-5.8-2-11.1-4.6-11.1-10.4c0-4.9,3.8-8.7,9.8-9.7v-5.9h5
					v5.6c3.1,0.1,5.8,0.8,8.2,2l0.4,0.2l-2,4.7L78.8,59c-1.1-0.6-3.8-1.9-8-1.9c-4.7,0-6.4,2.4-6.4,4.4c0,2.5,1.8,3.9,7.8,6.1
					C79.6,70.1,82.7,73.4,82.7,78.5z"/>
			</g>
		</g>
	</g>
</g>
</svg>
