<?xml version="1.0" encoding="utf-8"?>
<!-- Generator: Adobe Illustrator 24.0.0, SVG Export Plug-In . SVG Version: 6.00 Build 0)  -->
<svg version="1.1" id="Capa_1" xmlns="http://www.w3.org/2000/svg" xmlns:xlink="http://www.w3.org/1999/xlink" x="0px" y="0px"
	 viewBox="0 0 167 138" style="enable-background:new 0 0 167 138;" xml:space="preserve">
<g id="Fondos">
</g>
<g>
	<path d="M89.6,80.2c0-8-4.9-13.1-16.2-17.2c-8.8-3.2-11.6-5.4-11.6-9c0-2.9,2.4-6.4,9.4-6.4c6.3,0,10.4,2.1,12.1,2.8l1,0.5l3.4-8
		l-0.9-0.5c-3.6-2-7.7-2.9-12.3-3.2v-8.6h-8.5v9.2c-9.2,1.7-15,7.6-15,15.1c0,9.1,8.4,13.2,17.2,16.3c7.4,2.7,10.5,5.4,10.5,9.4
		c0,4.3-4.3,7.4-10.8,7.4c-4.9,0-9.9-1.3-13.7-3.6L53,83.8l-3.2,8l0.8,0.5c3.5,2.2,9.2,3.8,14.7,3.9v8.8h8.5v-9
		C84.6,94.3,89.6,86.8,89.6,80.2z"/>
	<path d="M126.4,87c-1.4-0.6-2.9,0.2-3.5,1.6c-8.2,21.5-29,36-52,36c-30.7,0-55.6-25-55.6-55.6c0-30.7,25-55.6,55.6-55.6
		c23.6,0,44.6,14.9,52.5,37.1c0.5,1.4,2.1,2.2,3.5,1.6c1.4-0.5,2.2-2.1,1.6-3.5C119.8,24.2,96.6,8.1,70.9,8.1c-33.6,0-61,27.3-61,61
		s27.3,60.9,61,60.9c25.3,0,48.2-15.9,57.1-39.4C128.4,89.1,127.8,87.5,126.4,87z"/>
	<path d="M155.2,65.8l-17-11.7c-1.2-0.8-2.9-0.6-3.8,0.7c-0.8,1.2-0.6,2.9,0.7,3.8l11.7,8.1h-25.7c-1.5,0-2.7,1.2-2.7,2.7
		s1.2,2.7,2.7,2.7h25.7l-11.6,8.1c-1.2,0.8-1.5,2.5-0.7,3.8c0.5,0.8,1.3,1.1,2.3,1.1c0.6,0,1-0.2,1.5-0.5l17-11.7
		c1.1-0.8,1.8-2.1,1.8-3.5S156.3,66.6,155.2,65.8z"/>
</g>
</svg>
